<svg xmlns="http://www.w3.org/2000/svg"><symbol viewBox="0 0 11 7" id="icon-arrow-down--thick"><title>arrow-down--thick</title> <path fill-rule="evenodd" d="M7.22869701,1.88861299 L7.25868,1.85863 L8.67288,3.27283 L3.72318,8.22253 L2.30898,6.80833 L5.81095,3.30636 L2.27747,-0.22712 L3.67747,-1.62712 L4.77747,-0.62712 L7.22869701,1.88861299 Z" transform="rotate(90 5.475 3.298)"/> </symbol><symbol viewBox="0 0 10 6" id="icon-arrow-down--thin"><title>arrow-down--thin</title> <polygon points="10 .838 9.188 0 5 4.323 .812 0 0 .838 5 6"/> </symbol><symbol id="icon-close"><title>close</title><path d="M20.707 4.707l-1.414-1.414L12 10.586 4.707 3.293 3.293 4.707 10.586 12l-7.293 7.293 1.414 1.414L12 13.414l7.293 7.293 1.414-1.414L13.414 12"/></symbol><symbol id="icon-menu"><title>menu</title><path d="M2 4h20v2H2zm0 7h20v2H2zm6 7h14v2H8z"/></symbol><symbol viewBox="0 0 32 32" id="icon-sm_facebook"><title>sm_facebook</title> <style type="text/css"> .st0{fill-rule:evenodd;clip-rule:evenodd;fill:#444444;} </style> <path class="st0" d="M30.7,0H1.3C0.6,0,0,0.6,0,1.3v29.3C0,31.4,0.6,32,1.3,32H17V20h-4v-5h4v-4c0-4.1,2.6-6.2,6.3-6.2
	C25.1,4.8,26.6,5,27,5v4.3l-2.6,0c-2,0-2.5,1-2.5,2.4V15h5l-1,5h-4l0.1,12h8.6c0.7,0,1.3-0.6,1.3-1.3V1.3C32,0.6,31.4,0,30.7,0"/> </symbol><symbol viewBox="0 0 32 32" id="icon-sm_instagram"><title>sm_instagram</title> <path d="M28,29 L4,29 C3.448,29 3,28.552 3,28 L3,13 L7,13 C6.479,13.75 6.303,15.149 6.303,16.037 C6.303,21.392 10.67,25.749 16.037,25.749 C21.405,25.749 25.772,21.392 25.772,16.037 C25.772,15.149 25.646,13.771 25,13 L29,13 L29,28 C29,28.552 28.552,29 28,29 M16.037,9.898 C19.436,9.898 22.191,12.647 22.191,16.037 C22.191,19.428 19.436,22.177 16.037,22.177 C12.639,22.177 9.884,19.428 9.884,16.037 C9.884,12.647 12.639,9.898 16.037,9.898 M24,4 L27,4 C27.552,4 28,4.448 28,5 L28,8 C28,8.552 27.552,9 27,9 L24,9 C23.448,9 23,8.552 23,8 L23,5 C23,4.448 23.448,4 24,4 M28.196,0 L3.804,0 C1.703,0 0,1.699 0,3.795 L0,28.205 C0,30.301 1.703,32 3.804,32 L28.196,32 C30.297,32 32,30.301 32,28.205 L32,3.795 C32,1.699 30.297,0 28.196,0"/> </symbol><symbol viewBox="0 0 32 26" id="icon-sm_twitter"><title>sm_twitter</title> <path d="M28.229,5.1096 C29.585,4.2966 30.626,3.0106 31.116,1.4776 C29.848,2.2296 28.442,2.7756 26.947,3.0706 C25.749,1.7946 24.043,0.9976 22.155,0.9976 C18.529,0.9976 15.59,3.9366 15.59,7.5626 C15.59,8.0766 15.648,8.5776 15.76,9.0586 C10.303,8.7846 5.466,6.1706 2.228,2.1986 C1.663,3.1686 1.339,4.2966 1.339,5.4996 C1.339,7.7766 2.498,9.7866 4.259,10.9636 C3.183,10.9296 2.171,10.6346 1.286,10.1426 C1.285,10.1706 1.285,10.1976 1.285,10.2256 C1.285,13.4066 3.548,16.0596 6.552,16.6626 C6.001,16.8126 5.421,16.8926 4.822,16.8926 C4.399,16.8926 3.988,16.8516 3.587,16.7756 C4.422,19.3836 6.847,21.2816 9.72,21.3346 C7.473,23.0956 4.642,24.1446 1.566,24.1446 C1.036,24.1446 0.514,24.1136 0,24.0536 C2.905,25.9156 6.356,27.0026 10.064,27.0026 C22.14,27.0026 28.743,16.9986 28.743,8.3236 C28.743,8.0386 28.737,7.7556 28.724,7.4736 C30.007,6.5486 31.12,5.3926 32,4.0756 C30.823,4.5976 29.557,4.9506 28.229,5.1096 Z" transform="translate(0 -1)"/> </symbol></svg>