<svg xmlns="http://www.w3.org/2000/svg" width="32" height="26" viewBox="0 0 32 26">
  <path d="M28.229,5.1096 C29.585,4.2966 30.626,3.0106 31.116,1.4776 C29.848,2.2296 28.442,2.7756 26.947,3.0706 C25.749,1.7946 24.043,0.9976 22.155,0.9976 C18.529,0.9976 15.59,3.9366 15.59,7.5626 C15.59,8.0766 15.648,8.5776 15.76,9.0586 C10.303,8.7846 5.466,6.1706 2.228,2.1986 C1.663,3.1686 1.339,4.2966 1.339,5.4996 C1.339,7.7766 2.498,9.7866 4.259,10.9636 C3.183,10.9296 2.171,10.6346 1.286,10.1426 C1.285,10.1706 1.285,10.1976 1.285,10.2256 C1.285,13.4066 3.548,16.0596 6.552,16.6626 C6.001,16.8126 5.421,16.8926 4.822,16.8926 C4.399,16.8926 3.988,16.8516 3.587,16.7756 C4.422,19.3836 6.847,21.2816 9.72,21.3346 C7.473,23.0956 4.642,24.1446 1.566,24.1446 C1.036,24.1446 0.514,24.1136 0,24.0536 C2.905,25.9156 6.356,27.0026 10.064,27.0026 C22.14,27.0026 28.743,16.9986 28.743,8.3236 C28.743,8.0386 28.737,7.7556 28.724,7.4736 C30.007,6.5486 31.12,5.3926 32,4.0756 C30.823,4.5976 29.557,4.9506 28.229,5.1096 Z" transform="translate(0 -1)"/>
</svg>
